<?xml version="1.0" encoding="UTF-8" standalone="no"?>
<!-- Uploaded to: SVG Repo, www.svgrepo.com, Generator: SVG Repo Mixer Tools -->

<svg
   fill="#000000"
   height="800"
   width="800"
   version="1.1"
   id="Layer_1"
   viewBox="0 0 470 470"
   xml:space="preserve"
   xmlns="http://www.w3.org/2000/svg"
   xmlns:svg="http://www.w3.org/2000/svg"><defs
   id="defs7" />
<g
   id="g7"
   transform="matrix(0.9375,0,0,0.9375,14.6875,14.6875)"
   style="fill:#4d8cff;fill-opacity:1;stroke:#0004a9;stroke-width:6.26667;stroke-dasharray:none;stroke-opacity:1">
	<g
   id="g6"
   style="fill:#4d8cff;fill-opacity:1;stroke:#0004a9;stroke-width:6.26667;stroke-dasharray:none;stroke-opacity:1">
		<g
   id="g5"
   style="fill:#4d8cff;fill-opacity:1;stroke:#0004a9;stroke-width:6.26667;stroke-dasharray:none;stroke-opacity:1">
			<path
   d="m 467.804,32.197 -30,-30 C 436.396,0.79 434.489,0 432.5,0 h -395 c -1.989,0 -3.897,0.79 -5.303,2.197 l -30,30 C 0.79,33.603 0,35.511 0,37.5 v 425 c 0,4.142 3.358,7.5 7.5,7.5 h 60 c 4.142,0 7.5,-3.358 7.5,-7.5 V 440 h 320 v 22.5 c 0,4.142 3.357,7.5 7.5,7.5 h 60 c 4.143,0 7.5,-3.358 7.5,-7.5 v -425 c 0,-1.989 -0.79,-3.897 -2.196,-5.303 z M 128.321,15 h 205 v 75 h -205 V 15 Z M 395,105 V 365 H 75 V 105 Z m 60,350 h -45 v -22.5 c 0,-4.142 -3.357,-7.5 -7.5,-7.5 h -335 c -4.142,0 -7.5,3.358 -7.5,7.5 V 455 H 15 V 40.606 L 40.606,15 H 113.32 V 90 H 67.5 C 63.358,90 60,93.358 60,97.5 v 275 c 0,4.142 3.358,7.5 7.5,7.5 h 335 c 4.143,0 7.5,-3.358 7.5,-7.5 V 97.5 C 410,93.358 406.643,90 402.5,90 H 348.32 V 15 h 81.073 L 455,40.606 Z"
   id="path1"
   style="fill:#4d8cff;fill-opacity:1;stroke:#0004a9;stroke-width:6.26667;stroke-dasharray:none;stroke-opacity:1" />
			<path
   d="m 97.5,350 h 275 c 4.143,0 7.5,-3.358 7.5,-7.5 0,-4.142 -3.357,-7.5 -7.5,-7.5 h -54.18 v -32.5 c 0,-4.142 -3.357,-7.5 -7.5,-7.5 h -160 c -4.142,0 -7.5,3.358 -7.5,7.5 V 335 H 97.5 c -4.142,0 -7.5,3.358 -7.5,7.5 0,4.142 3.358,7.5 7.5,7.5 z m 60.821,-40 h 145 v 25 h -145 z"
   id="path2"
   style="fill:#4d8cff;fill-opacity:1;stroke:#0004a9;stroke-width:6.26667;stroke-dasharray:none;stroke-opacity:1" />
			<path
   d="m 180.821,180 h 12.5 v 22.5 c 0,4.142 3.358,7.5 7.5,7.5 h 22.5 v 32.5 c 0,4.142 3.358,7.5 7.5,7.5 h 80 c 4.143,0 7.5,-3.358 7.5,-7.5 0,-4.142 -3.357,-7.5 -7.5,-7.5 h -72.499 v -25 h 22.499 c 4.143,0 7.5,-3.358 7.5,-7.5 V 180 h 12.5 c 4.143,0 7.5,-3.358 7.5,-7.5 v -45 c 0,-4.142 -3.357,-7.5 -7.5,-7.5 -4.143,0 -7.5,3.358 -7.5,7.5 V 165 h -85 v -37.5 c 0,-4.142 -3.358,-7.5 -7.5,-7.5 -4.142,0 -7.5,3.358 -7.5,7.5 v 45 c 0,4.142 3.358,7.5 7.5,7.5 z m 27.499,0 h 45 v 15 h -45 z"
   id="path3"
   style="fill:#4d8cff;fill-opacity:1;stroke:#0004a9;stroke-width:6.26667;stroke-dasharray:none;stroke-opacity:1" />
			<path
   d="m 295.82,30 c -12.406,0 -22.5,10.093 -22.5,22.5 0,12.407 10.094,22.5 22.5,22.5 12.406,0 22.5,-10.093 22.5,-22.5 0,-12.407 -10.093,-22.5 -22.5,-22.5 z m 0,30 c -4.136,0 -7.5,-3.364 -7.5,-7.5 0,-4.136 3.364,-7.5 7.5,-7.5 4.136,0 7.5,3.364 7.5,7.5 0,4.136 -3.364,7.5 -7.5,7.5 z"
   id="path4"
   style="fill:#4d8cff;fill-opacity:1;stroke:#0004a9;stroke-width:6.26667;stroke-dasharray:none;stroke-opacity:1" />
			<path
   d="m 150.821,280 h 160 c 4.143,0 7.5,-3.358 7.5,-7.5 0,-4.142 -3.357,-7.5 -7.5,-7.5 h -160 c -4.142,0 -7.5,3.358 -7.5,7.5 0,4.142 3.358,7.5 7.5,7.5 z"
   id="path5"
   style="fill:#4d8cff;fill-opacity:1;stroke:#0004a9;stroke-width:6.26667;stroke-dasharray:none;stroke-opacity:1" />
		</g>
	</g>
</g>
</svg>
