<?xml version="1.0" encoding="UTF-8" standalone="no"?>
<!-- Uploaded to: SVG Repo, www.svgrepo.com, Generator: SVG Repo Mixer Tools -->

<svg
   fill="#000000"
   height="800"
   width="800"
   version="1.1"
   id="Layer_1"
   viewBox="0 0 470 470"
   xml:space="preserve"
   xmlns="http://www.w3.org/2000/svg"
   xmlns:svg="http://www.w3.org/2000/svg"><defs
   id="defs7" />
<g
   id="g7"
   transform="matrix(0.9375,0,0,0.9375,14.6875,14.6875)"
   style="fill:#4d8cff;fill-opacity:1;stroke:#0004a9;stroke-width:6.26667;stroke-dasharray:none;stroke-opacity:1">
	<g
   id="g6"
   style="fill:#4d8cff;fill-opacity:1;stroke:#0004a9;stroke-width:6.26667;stroke-dasharray:none;stroke-opacity:1">
		<g
   id="g5"
   style="fill:#4d8cff;fill-opacity:1;stroke:#0004a9;stroke-width:6.26667;stroke-dasharray:none;stroke-opacity:1">
			<path
   d="m 235,150 c -20.678,0 -37.5,16.822 -37.5,37.5 0,20.678 16.822,37.5 37.5,37.5 20.678,0 37.5,-16.822 37.5,-37.5 0,-20.678 -16.822,-37.5 -37.5,-37.5 z m 0,60 c -12.407,0 -22.5,-10.093 -22.5,-22.5 0,-12.407 10.093,-22.5 22.5,-22.5 12.407,0 22.5,10.093 22.5,22.5 0,12.407 -10.093,22.5 -22.5,22.5 z"
   id="path1"
   style="fill:#4d8cff;fill-opacity:1;stroke:#0004a9;stroke-width:6.26667;stroke-dasharray:none;stroke-opacity:1" />
			<circle
   cx="385"
   cy="37.5"
   r="7.5"
   id="circle1"
   style="fill:#4d8cff;fill-opacity:1;stroke:#0004a9;stroke-width:6.26667;stroke-dasharray:none;stroke-opacity:1" />
			<circle
   cx="85"
   cy="37.5"
   r="7.5"
   id="circle2"
   style="fill:#4d8cff;fill-opacity:1;stroke:#0004a9;stroke-width:6.26667;stroke-dasharray:none;stroke-opacity:1" />
			<circle
   cx="385"
   cy="432.5"
   r="7.5"
   id="circle3"
   style="fill:#4d8cff;fill-opacity:1;stroke:#0004a9;stroke-width:6.26667;stroke-dasharray:none;stroke-opacity:1" />
			<circle
   cx="85"
   cy="432.5"
   r="7.5"
   id="circle4"
   style="fill:#4d8cff;fill-opacity:1;stroke:#0004a9;stroke-width:6.26667;stroke-dasharray:none;stroke-opacity:1" />
			<path
   d="M 415,0 H 55 c -4.142,0 -7.5,3.358 -7.5,7.5 v 455 c 0,4.142 3.358,7.5 7.5,7.5 h 360 c 4.142,0 7.5,-3.358 7.5,-7.5 V 7.5 C 422.5,3.358 419.142,0 415,0 Z M 222.501,455 h -160 V 295 H 81.38 c 12.146,17.343 26.923,32.306 44.042,44.634 -3.055,2.467 -3.193,2.604 -3.299,2.71 -14.621,14.621 -14.621,38.412 0,53.033 7.082,7.082 16.499,10.982 26.516,10.983 10.018,0 19.435,-3.9 26.517,-10.983 0.214,-0.214 0.54,-0.543 19.864,-24.677 9.031,1.962 18.231,3.264 27.481,3.877 V 455 Z m 65.302,-225.303 c -3.304,-3.304 -7.696,-5.124 -12.368,-5.124 -3.953,0 -7.827,1.355 -10.912,3.817 -49.083,39.202 -81.191,64.863 -102.225,81.688 C 119.119,284.427 92.5,237.913 92.5,187.5 92.5,108.925 156.425,45 235,45 c 78.575,0 142.5,63.925 142.5,142.5 0,78.575 -63.925,142.5 -142.5,142.5 -2.413,0 -4.837,-0.084 -7.261,-0.208 15.446,-19.324 35.443,-44.351 61.373,-76.817 5.558,-6.966 4.996,-16.974 -1.309,-23.278 z m -120.172,95.325 c 0.022,-0.017 0.044,-0.035 0.065,-0.052 31.498,-25.194 76.958,-61.514 106.185,-84.857 0.558,-0.446 1.153,-0.54 1.553,-0.54 0.385,0 1.126,0.095 1.762,0.73 0.899,0.899 0.981,2.324 0.192,3.313 -37.539,47.001 -108.635,135.98 -113.056,141.368 -4.225,4.115 -9.784,6.376 -15.691,6.376 -6.013,0 -11.664,-2.341 -15.913,-6.59 -8.701,-8.701 -8.772,-22.814 -0.213,-31.604 2.04,-1.672 16.001,-12.854 35.116,-28.144 z M 407.5,455 h -170 v -87.58 c 0,-4.063 -3.234,-7.386 -7.295,-7.497 -8.248,-0.225 -16.481,-1.056 -24.599,-2.451 3.253,-4.067 6.869,-8.588 10.862,-13.581 6.157,0.724 12.37,1.109 18.532,1.109 86.846,0 157.5,-70.654 157.5,-157.5 C 392.5,100.654 321.846,30 235,30 148.154,30 77.5,100.654 77.5,187.5 c 0,53.838 27.468,103.649 72.37,132.523 -4.917,3.936 -8.957,7.172 -12.275,9.832 C 119.371,317.377 103.9,301.75 91.567,283.328 90.174,281.248 87.837,280 85.335,280 H 62.5 V 15 h 345 z"
   id="path4"
   style="fill:#4d8cff;fill-opacity:1;stroke:#0004a9;stroke-width:6.26667;stroke-dasharray:none;stroke-opacity:1" />
			<path
   d="m 355,425 h -95 c -4.142,0 -7.5,3.358 -7.5,7.5 0,4.142 3.358,7.5 7.5,7.5 h 95 c 4.142,0 7.5,-3.358 7.5,-7.5 0,-4.142 -3.358,-7.5 -7.5,-7.5 z"
   id="path5"
   style="fill:#4d8cff;fill-opacity:1;stroke:#0004a9;stroke-width:6.26667;stroke-dasharray:none;stroke-opacity:1" />
		</g>
	</g>
</g>
</svg>
