<?xml version="1.0" encoding="UTF-8" standalone="no"?>
<!-- Uploaded to: SVG Repo, www.svgrepo.com, Generator: SVG Repo Mixer Tools -->

<svg
   fill="#000000"
   height="800"
   width="800"
   version="1.1"
   id="Layer_1"
   viewBox="0 0 470 470"
   xml:space="preserve"
   xmlns="http://www.w3.org/2000/svg"
   xmlns:svg="http://www.w3.org/2000/svg"><defs
   id="defs8" />
<g
   id="g9"
   transform="translate(2.34375,2.34375)"
   style="fill:#4d8cff;fill-opacity:1;stroke:#0004a9;stroke-width:5.875;stroke-dasharray:none;stroke-opacity:1"><g
     id="g8"
     transform="matrix(0.9375,0,0,0.9375,12.34375,12.34375)"
     style="fill:#4d8cff;fill-opacity:1;stroke:#0004a9;stroke-width:6.26667;stroke-dasharray:none;stroke-opacity:1">
	<g
   id="g7"
   style="fill:#4d8cff;fill-opacity:1;stroke:#0004a9;stroke-width:6.26667;stroke-dasharray:none;stroke-opacity:1">
		<g
   id="g6"
   style="fill:#4d8cff;fill-opacity:1;stroke:#0004a9;stroke-width:6.26667;stroke-dasharray:none;stroke-opacity:1">
			<path
   d="m 37.5,372.5 h 200 c 4.143,0 7.5,-3.358 7.5,-7.5 V 245 c 0,-4.142 -3.357,-7.5 -7.5,-7.5 h -200 c -4.143,0 -7.5,3.358 -7.5,7.5 v 120 c 0,4.142 3.357,7.5 7.5,7.5 z M 205,252.5 h 25 v 25 h -25 z m 0,40 h 25 v 25 h -25 z m 0,40 h 25 v 25 h -25 z m -40,-80 h 25 v 25 h -25 z m 0,40 h 25 v 25 h -25 z m -40,-40 h 25 v 25 h -25 z m 0,40 h 25 v 25 h -25 z m -40,-40 h 25 v 25 H 85 Z m 0,40 h 25 v 25 H 85 Z m 0,40 h 105 v 25 H 85 Z m -40,-80 h 25 v 25 H 45 Z m 0,40 h 25 v 25 H 45 Z m 0,40 h 25 v 25 H 45 Z"
   id="path1"
   style="fill:#4d8cff;fill-opacity:1;stroke:#0004a9;stroke-width:6.26667;stroke-dasharray:none;stroke-opacity:1" />
			<path
   d="m 37.5,212.5 h 200 c 4.143,0 7.5,-3.358 7.5,-7.5 v -40 c 0,-4.142 -3.357,-7.5 -7.5,-7.5 h -200 c -4.143,0 -7.5,3.358 -7.5,7.5 v 40 c 0,4.142 3.357,7.5 7.5,7.5 z m 167.5,-40 h 25 v 25 h -25 z m -40,0 h 25 v 25 h -25 z m -40,0 h 25 v 25 h -25 z m -40,0 h 25 v 25 H 85 Z m -40,0 h 25 v 25 H 45 Z"
   id="path2"
   style="fill:#4d8cff;fill-opacity:1;stroke:#0004a9;stroke-width:6.26667;stroke-dasharray:none;stroke-opacity:1" />
			<path
   d="m 267.5,212.5 h 55 c 4.143,0 7.5,-3.358 7.5,-7.5 v -40 c 0,-4.142 -3.357,-7.5 -7.5,-7.5 h -55 c -4.143,0 -7.5,3.358 -7.5,7.5 v 40 c 0,4.142 3.357,7.5 7.5,7.5 z m 7.5,-40 h 40 v 25 h -40 z"
   id="path3"
   style="fill:#4d8cff;fill-opacity:1;stroke:#0004a9;stroke-width:6.26667;stroke-dasharray:none;stroke-opacity:1" />
			<path
   d="m 267.5,372.5 h 55 c 4.143,0 7.5,-3.358 7.5,-7.5 V 245 c 0,-4.142 -3.357,-7.5 -7.5,-7.5 h -55 c -4.143,0 -7.5,3.358 -7.5,7.5 v 50 c 0,4.142 3.357,7.5 7.5,7.5 4.143,0 7.5,-3.358 7.5,-7.5 v -2.5 h 40 v 25 h -47.5 c -4.143,0 -7.5,3.358 -7.5,7.5 v 40 c 0,4.142 3.357,7.5 7.5,7.5 z m 7.5,-95 v -25 h 40 v 25 z m 0,55 h 40 v 25 h -40 z"
   id="path4"
   style="fill:#4d8cff;fill-opacity:1;stroke:#0004a9;stroke-width:6.26667;stroke-dasharray:none;stroke-opacity:1" />
			<path
   d="m 352.5,372.5 h 80 c 4.143,0 7.5,-3.358 7.5,-7.5 V 205 c 0,-4.142 -3.357,-7.5 -7.5,-7.5 h -80 c -4.143,0 -7.5,3.358 -7.5,7.5 v 160 c 0,4.142 3.357,7.5 7.5,7.5 z m 47.5,-160 h 25 v 25 h -25 z m 0,40 h 25 v 25 h -25 z m 0,40 h 25 v 25 h -25 z m 0,40 h 25 v 25 h -25 z m -40,-120 h 25 v 25 h -25 z m 0,40 h 25 v 25 h -25 z m 0,40 h 25 v 25 h -25 z m 0,40 h 25 v 25 h -25 z"
   id="path5"
   style="fill:#4d8cff;fill-opacity:1;stroke:#0004a9;stroke-width:6.26667;stroke-dasharray:none;stroke-opacity:1" />
			<path
   d="m 462.5,127.5 h -160 V 105 c 0,-12.406 10.094,-22.5 22.5,-22.5 h 137.5 c 4.143,0 7.5,-3.358 7.5,-7.5 0,-4.142 -3.357,-7.5 -7.5,-7.5 H 325 c -20.678,0 -37.5,16.823 -37.5,37.5 v 22.5 H 7.5 C 3.357,127.5 0,130.858 0,135 v 260 c 0,4.142 3.357,7.5 7.5,7.5 h 455 c 4.143,0 7.5,-3.358 7.5,-7.5 V 135 c 0,-4.142 -3.357,-7.5 -7.5,-7.5 z m -7.5,260 H 15 v -245 h 440 z"
   id="path6"
   style="fill:#4d8cff;fill-opacity:1;stroke:#0004a9;stroke-width:6.26667;stroke-dasharray:none;stroke-opacity:1" />
		</g>
	</g>
</g></g>
</svg>
