<?xml version="1.0" encoding="UTF-8" standalone="no"?>
<!-- Uploaded to: SVG Repo, www.svgrepo.com, Generator: SVG Repo Mixer Tools -->

<svg
   width="800"
   height="800"
   viewBox="0 0 1024 1024"
   class="icon"
   version="1.1"
   id="svg6"
   xmlns="http://www.w3.org/2000/svg"
   xmlns:svg="http://www.w3.org/2000/svg">
  <defs
     id="defs6" />
  <path
     id="path1-9"
     style="fill:#000376;fill-opacity:1;stroke-width:1.15225"
     d="M 504.50308,0 C 227.73387,0 49.366374,92.870929 49.366374,207.40406 v 182.63081 c 0.0614,3.83939 0.404421,7.66401 0.907393,11.47635 -0.538862,4.40075 -0.907393,8.8259 -0.907393,13.29691 0,0.2705 0.03833,0.53631 0.04031,0.80657 h -0.04031 v 182.6308 c 0.05942,3.71239 0.3717,7.41179 0.84402,11.099 -0.504417,4.2595 -0.84402,8.54257 -0.84402,12.8677 0,0.2705 0.03833,0.53631 0.04031,0.80656 h -0.04031 V 828.69447 C 51.094742,936.65981 228.77089,1024 504.50308,1024 780.23532,1024 957.79621,936.65981 959.63976,828.69447 V 623.01876 h -0.0406 c 0,-0.27025 0.0406,-0.53606 0.0406,-0.80656 0,-4.3397 -0.34296,-8.6349 -0.84973,-12.90802 0.4725,-3.67386 0.78664,-7.35984 0.84973,-11.05868 V 415.6147 h -0.0406 c 0,-0.27026 0.0406,-0.53607 0.0406,-0.80657 0,-4.48657 -0.37159,-8.92484 -0.91311,-13.34012 0.5029,-3.79805 0.84784,-7.60824 0.91311,-11.43314 V 207.40406 C 959.63976,92.755705 781.27232,0 504.50308,0 Z" />
  <path
     d="m 111.47209,602.53214 v 176.77841 c 1.48554,92.79629 154.19832,167.86522 391.19033,167.86522 236.99201,0 389.60576,-75.06893 391.19032,-167.86522 V 602.53214 Z"
     fill="#1B9BDB"
     id="path1"
     style="fill:#4d8cff;fill-opacity:1;stroke-width:0.990355" />
  <path
     d="m 893.85274,601.83889 c 0,98.44131 -153.30699,178.26394 -391.19032,178.26394 -237.88333,0 -391.19033,-79.82263 -391.19033,-178.26394 0,-98.44131 153.307,-178.26395 391.19033,-178.26395 237.88333,0 391.19032,79.7236 391.19032,178.26395 z"
     fill="#FFFFFF"
     id="path2"
     style="fill:#b5c9ff;fill-opacity:1;stroke-width:0.990355" />
  <path
     d="M 111.47209,424.26819 V 581.2395 c 1.48554,92.79629 154.19832,177.76877 391.19033,177.76877 236.99201,0 389.60576,-84.97248 391.19032,-177.76877 V 424.26819 Z"
     fill="#1B9BDB"
     id="path3"
     style="fill:#4d8cff;fill-opacity:1;stroke-width:0.990355" />
  <path
     d="m 893.85274,423.57494 c 0,98.44131 -153.30699,178.26395 -391.19032,178.26395 -237.88333,0 -391.19033,-79.82264 -391.19033,-178.26395 0,-98.44131 153.307,-178.26394 391.19033,-178.26394 237.88333,0 391.19032,79.72359 391.19032,178.26394 z"
     fill="#FFFFFF"
     id="path4"
     style="fill:#b5c9ff;fill-opacity:1;stroke-width:0.990355" />
  <path
     d="m 111.47209,245.311 v 156.9713 c 1.48554,92.79629 154.19832,177.76877 391.19033,177.76877 236.99201,0 389.60576,-84.97248 391.19032,-177.76877 V 245.311 Z"
     fill="#1B9BDB"
     id="path5"
     style="fill:#4d8cff;fill-opacity:1;stroke-width:0.990355" />
  <path
     d="m 893.85274,245.311 c 0,98.44131 -153.30699,178.26394 -391.19032,178.26394 -237.88333,0 -391.19033,-79.82263 -391.19033,-178.26394 0,-98.44132 153.307,-178.263949 391.19033,-178.263949 237.88333,0 391.19032,79.723599 391.19032,178.263949 z"
     fill="#3ED6FF"
     id="path6"
     style="fill:#709eff;fill-opacity:1;stroke-width:0.990355" />
</svg>
